<svg xmlns="http://www.w3.org/2000/svg" width="360" height="240" viewBox="0 0 360 240" role="img" aria-label="Gemini 成品账号">
  <defs>
    <linearGradient id="bg" x1="0" x2="1" y1="0" y2="1">
      <stop offset="0" stop-color="#eef6ff"/>
      <stop offset="0.5" stop-color="#f6f0ff"/>
      <stop offset="1" stop-color="#ecfff8"/>
    </linearGradient>
    <linearGradient id="mark" x1="0" x2="1" y1="0" y2="1">
      <stop offset="0" stop-color="#12b5ff"/>
      <stop offset="0.48" stop-color="#7b5cff"/>
      <stop offset="1" stop-color="#18b981"/>
    </linearGradient>
  </defs>
  <rect width="360" height="240" rx="26" fill="url(#bg)"/>
  <circle cx="300" cy="46" r="54" fill="#fff" opacity=".58"/>
  <circle cx="60" cy="198" r="70" fill="#fff" opacity=".45"/>
  <rect x="36" y="42" width="288" height="156" rx="24" fill="#fff" opacity=".86"/>
  <rect x="60" y="78" width="84" height="84" rx="22" fill="#f2f0ff"/>
  <path d="M102 75c9 26 23 40 49 49-26 9-40 23-49 49-9-26-23-40-49-49 26-9 40-23 49-49Z" fill="url(#mark)"/>
  <path d="M102 98c5 14 12 21 26 26-14 5-21 12-26 26-5-14-12-21-26-26 14-5 21-12 26-26Z" fill="#fff" opacity=".82"/>
  <rect x="164" y="78" width="132" height="14" rx="7" fill="#152238"/>
  <rect x="164" y="108" width="116" height="12" rx="6" fill="#8a9bb4"/>
  <rect x="164" y="134" width="96" height="12" rx="6" fill="#b0bfd3"/>
  <rect x="164" y="160" width="88" height="20" rx="10" fill="#eef6ff"/>
  <text x="178" y="175" fill="#5f4af2" font-family="Arial, sans-serif" font-size="14" font-weight="700">Gemini</text>
</svg>
