<svg xmlns="http://www.w3.org/2000/svg" width="360" height="240" viewBox="0 0 360 240" role="img" aria-label="Claude 成品账号">
  <defs>
    <linearGradient id="bg" x1="0" x2="1" y1="0" y2="1">
      <stop offset="0" stop-color="#fff7ed"/>
      <stop offset="0.55" stop-color="#fff1f2"/>
      <stop offset="1" stop-color="#eef6ff"/>
    </linearGradient>
    <linearGradient id="mark" x1="0" x2="1" y1="0" y2="1">
      <stop offset="0" stop-color="#ff8a34"/>
      <stop offset="1" stop-color="#7b5cff"/>
    </linearGradient>
  </defs>
  <rect width="360" height="240" rx="26" fill="url(#bg)"/>
  <circle cx="308" cy="52" r="58" fill="#fff" opacity=".55"/>
  <circle cx="54" cy="186" r="68" fill="#fff" opacity=".45"/>
  <rect x="36" y="42" width="288" height="156" rx="24" fill="#fff" opacity=".86"/>
  <circle cx="102" cy="120" r="43" fill="url(#mark)"/>
  <path d="M82 139c4-35 15-55 34-60 23 22 25 48 6 82-18-2-31-10-40-22Z" fill="#fff" opacity=".9"/>
  <path d="M126 91c15 17 20 34 15 51-9 12-21 19-36 20 17-21 24-45 21-71Z" fill="#fff" opacity=".62"/>
  <rect x="164" y="78" width="136" height="14" rx="7" fill="#152238"/>
  <rect x="164" y="108" width="120" height="12" rx="6" fill="#8a9bb4"/>
  <rect x="164" y="134" width="104" height="12" rx="6" fill="#b0bfd3"/>
  <rect x="164" y="160" width="92" height="20" rx="10" fill="#fff3e8"/>
  <text x="179" y="175" fill="#c46320" font-family="Arial, sans-serif" font-size="14" font-weight="700">Claude</text>
</svg>
