<svg xmlns="http://www.w3.org/2000/svg" width="360" height="240" viewBox="0 0 360 240" role="img" aria-label="GPT 成品账号">
  <defs>
    <linearGradient id="bg" x1="0" x2="1" y1="0" y2="1">
      <stop offset="0" stop-color="#eef8ff"/>
      <stop offset="0.52" stop-color="#f4f0ff"/>
      <stop offset="1" stop-color="#e8fff7"/>
    </linearGradient>
    <linearGradient id="mark" x1="0" x2="1" y1="0" y2="1">
      <stop offset="0" stop-color="#18b981"/>
      <stop offset="1" stop-color="#246bfe"/>
    </linearGradient>
  </defs>
  <rect width="360" height="240" rx="26" fill="url(#bg)"/>
  <circle cx="300" cy="42" r="54" fill="#fff" opacity=".55"/>
  <circle cx="64" cy="202" r="72" fill="#fff" opacity=".45"/>
  <rect x="36" y="42" width="288" height="156" rx="24" fill="#fff" opacity=".84"/>
  <circle cx="102" cy="120" r="42" fill="url(#mark)"/>
  <path d="M102 78c17 13 32 27 42 42-10 15-25 29-42 42-17-13-32-27-42-42 10-15 25-29 42-42Z" fill="#fff" opacity=".9"/>
  <circle cx="102" cy="120" r="16" fill="url(#mark)"/>
  <rect x="164" y="78" width="112" height="14" rx="7" fill="#152238"/>
  <rect x="164" y="108" width="134" height="12" rx="6" fill="#8a9bb4"/>
  <rect x="164" y="134" width="96" height="12" rx="6" fill="#b0bfd3"/>
  <rect x="164" y="160" width="72" height="20" rx="10" fill="#e8f5ff"/>
  <text x="180" y="175" fill="#246bfe" font-family="Arial, sans-serif" font-size="14" font-weight="700">GPT</text>
</svg>
